# xmcd
# 
# Track frame offsets:
#     150
#     21460
#     39418
#     58312
#     65395
#     85540
#     106252
#     118340
#     140231
#     155713
#     176477
#     188317
#     195262
# 
# Disc length: 2853
# 
# Revision: 0
# Processed by: cddbd v1.5.2PL0 Copyright (c) Steve Scherf et al.
# Submitted via: fre:ac v1.0.17
# 
DISCID=b00b230d
DTITLE=Connie Kaldor - Postcards from the Road
DYEAR=2009
DGENRE=Country
TTITLE0=MAYBE
TTITLE1=OH MY LOVE
TTITLE2=WHAT MIGHT HAVE BEEN
TTITLE3=YOU'RE ALL RIGHT
TTITLE4=A LONG LONG WAY (PAUL'S SONG)
TTITLE5=WELCOME TO HEARTACHEVILLE
TTITLE6=SWEET AS OKANAGAN PEACHES
TTITLE7=RIDE GONE WRONG
TTITLE8=UP ABOVE THE DREAM CAFE
TTITLE9=HARD TO SAY GOODBYE
TTITLE10=YOU ONLY YOU ONLY YOU
TTITLE11=MINER'S WIFE
TTITLE12=LIKE A MOUNTAIN
EXTD=
EXTT0=
EXTT1=
EXTT2=
EXTT3=
EXTT4=
EXTT5=
EXTT6=
EXTT7=
EXTT8=
EXTT9=
EXTT10=
EXTT11=
EXTT12=
PLAYORDER=
